<?xml version="1.0" standalone="no"?>
<!DOCTYPE svg PUBLIC "-//W3C//DTD SVG 20010904//EN"
 "http://www.w3.org/TR/2001/REC-SVG-20010904/DTD/svg10.dtd">
<svg version="1.0" xmlns="http://www.w3.org/2000/svg"
 width="471.000000pt" height="471.000000pt" viewBox="0 0 471.000000 471.000000"
 preserveAspectRatio="xMidYMid meet">
<metadata>
Created by potrace 1.11, written by Peter Selinger 2001-2013
</metadata>
<g transform="translate(0.000000,471.000000) scale(0.100000,-0.100000)"
fill="#000000" stroke="none">
<path d="M2251 3130 c-35 -17 -77 -40 -94 -52 -28 -20 -46 -23 -139 -25 -59
-1 -112 -4 -117 -8 -21 -12 2 -35 35 -35 24 0 34 -5 34 -15 0 -11 11 -15 35
-15 l36 0 -23 -25 c-38 -40 -43 -47 -72 -107 -29 -59 -28 -78 5 -78 21 0 27
-29 7 -31 -7 -1 -24 -2 -38 -2 -18 -2 -30 -13 -46 -42 l-20 -40 -125 0 c-112
0 -125 -1 -132 -18 -5 -13 -14 -18 -26 -14 -22 6 -38 -3 -43 -23 -2 -12 19
-15 140 -16 127 -1 142 1 142 16 0 9 7 17 15 17 19 0 19 1 -6 -58 -12 -27 -25
-46 -30 -44 -4 3 -13 -3 -19 -14 -6 -12 -6 -22 -1 -25 12 -8 11 -12 -28 -131
-19 -55 -34 -106 -34 -112 0 -10 -27 -13 -99 -13 -97 0 -99 0 -96 -22 2 -18
10 -23 31 -23 15 0 32 -6 36 -14 6 -9 26 -14 55 -14 51 0 51 1 33 -77 -17 -72
-7 -147 26 -195 43 -63 156 -132 247 -150 32 -6 29 -2 -34 40 -134 92 -170
149 -131 209 24 37 79 69 247 145 85 38 183 86 217 106 80 47 117 51 178 18
111 -60 346 -174 364 -177 3 -1 27 -12 54 -26 65 -33 125 -91 125 -120 0 -39
-42 -98 -103 -147 -33 -26 -55 -49 -48 -51 18 -6 139 59 177 95 71 67 75 120
28 336 -9 39 -19 83 -21 97 l-5 25 81 -1 c73 -1 81 0 81 17 0 20 -3 20 -105
20 -72 0 -75 0 -75 -16 0 -11 -12 -15 -51 -15 -36 0 -49 4 -46 13 2 7 21 12
47 12 24 0 45 5 47 11 2 7 -15 69 -37 138 -35 107 -45 128 -66 136 -14 6 -23
14 -19 19 3 5 -5 11 -17 13 -35 5 -34 28 1 28 29 0 30 2 21 26 -6 14 -10 28
-10 32 0 4 64 7 143 7 140 0 142 0 145 23 3 21 0 22 -57 22 -48 0 -61 3 -61
15 0 16 -11 17 -148 16 -50 0 -64 4 -69 17 -16 43 -102 158 -156 207 -70 64
-127 99 -204 126 -76 26 -107 24 -182 -11z m-78 -96 c-3 -8 1 -15 8 -15 8 -1
21 -3 29 -4 8 -1 22 -3 30 -4 10 -1 11 -4 3 -12 -10 -10 -183 -20 -183 -11 0
2 14 16 31 31 33 30 92 41 82 15z m10 -193 c4 -1 7 -5 7 -11 0 -5 -16 -10 -35
-10 -23 0 -35 5 -35 13 0 12 16 14 63 8z m616 -66 c5 -6 12 -20 16 -32 6 -22
4 -23 -69 -23 -61 0 -76 3 -76 15 0 8 -6 15 -12 16 -7 1 -31 2 -53 4 -57 3
-59 4 -47 18 13 16 226 17 241 2z m-924 -146 c-10 -15 -25 -10 -19 6 4 8 10
12 15 9 5 -3 7 -10 4 -15z m165 -135 c0 -17 8 -16 -127 -18 -105 -1 -129 5
-107 26 3 3 57 6 120 6 89 -1 114 -4 114 -14z m808 -37 c3 -13 -4 -17 -32 -17
-40 0 -42 2 -21 23 19 19 49 15 53 -6z m-938 -100 c0 -7 -13 -13 -30 -13 -19
-1 -30 3 -30 12 0 9 11 14 30 14 17 0 30 -5 30 -13z m-120 -163 c0 -9 12 -14
35 -14 22 0 35 -5 35 -13 0 -9 -22 -13 -80 -13 -77 -1 -80 0 -80 22 0 13 7 27
16 32 22 12 74 2 74 -14z"/>
<path d="M2800 2952 c0 -14 8 -18 40 -19 33 -1 40 3 40 18 0 15 -7 19 -40 19
-32 0 -40 -4 -40 -18z"/>
<path d="M1827 2867 c-8 -21 5 -32 41 -35 28 -2 32 1 32 23 0 22 -4 25 -34 25
-19 0 -36 -6 -39 -13z"/>
<path d="M3042 2536 c4 -28 78 -34 78 -6 0 14 -9 19 -40 22 -36 3 -40 1 -38
-16z"/>
<path d="M1490 2460 c0 -16 7 -20 30 -20 17 0 33 -1 38 -2 4 -2 8 7 10 20 3
20 -1 22 -37 22 -34 0 -41 -3 -41 -20z"/>
<path d="M1638 2322 c-10 -2 -18 -12 -18 -23 0 -15 7 -19 39 -19 33 0 40 3 38
19 -1 20 -27 30 -59 23z"/>
<path d="M2178 2182 c-84 -43 -173 -87 -198 -97 -25 -10 -46 -20 -48 -21 -20
-13 128 -178 228 -254 25 -19 47 -37 50 -41 8 -10 83 -46 111 -53 40 -9 104
18 185 79 115 86 244 222 244 256 0 8 -47 35 -108 64 -59 27 -141 68 -182 91
-116 64 -107 65 -282 -24z"/>
<path d="M863 1988 c-12 -6 -27 -23 -33 -38 -11 -26 -7 -111 6 -132 4 -6 -8
-8 -30 -5 -20 3 -54 0 -75 -5 -58 -15 -67 -49 -34 -119 32 -70 50 -89 83 -89
34 0 54 22 54 62 1 24 6 32 22 34 18 3 26 -6 43 -46 18 -43 26 -50 49 -50 40
0 66 22 59 49 -8 34 8 16 28 -31 11 -24 24 -46 30 -50 21 -15 57 -7 82 18 20
20 24 32 19 55 -4 21 -2 29 8 29 8 0 18 -15 21 -32 14 -64 32 -86 66 -84 41 3
72 40 67 81 l-3 30 64 -2 c35 -1 75 3 90 9 45 19 59 18 64 -2 10 -37 110 -55
113 -20 1 8 3 17 4 20 1 3 3 26 5 52 4 62 -16 89 -70 93 -22 1 -53 8 -68 14
-16 6 -39 11 -52 11 -13 0 -25 4 -27 9 -1 5 -36 32 -77 60 -77 53 -112 62
-146 37 -23 -17 -102 -11 -125 9 -22 20 -76 25 -97 10 -15 -11 -23 -11 -50 6
-40 25 -62 29 -90 17z"/>
<path d="M3788 1992 c-10 -2 -18 -7 -18 -10 0 -4 -9 -13 -21 -20 -15 -10 -24
-10 -34 -2 -21 17 -66 15 -105 -5 -44 -23 -99 -26 -128 -7 -14 9 -33 12 -53 8
-29 -6 -103 -50 -145 -88 -22 -20 -105 -46 -169 -53 -56 -6 -76 -33 -69 -93
10 -89 11 -92 47 -92 37 0 77 24 77 46 0 15 18 14 61 -4 33 -13 142 -12 151 2
4 5 4 -9 1 -31 -5 -35 -2 -45 20 -67 51 -51 104 -19 110 64 1 21 7 30 19 30
14 0 16 -6 12 -29 -12 -57 72 -107 107 -65 7 9 21 33 30 53 16 36 16 36 24 11
10 -31 22 -40 56 -40 22 0 30 8 48 50 18 41 25 49 44 46 17 -2 22 -10 23 -34
1 -54 38 -77 85 -52 25 14 69 102 69 139 0 53 -24 65 -118 63 -24 -1 -41 2
-38 6 12 20 16 108 5 133 -13 34 -51 51 -91 41z"/>
</g>
</svg>
